<?xml version="1.0" encoding="UTF-8"?>
<svg id="_图层_1" data-name="图层_1" xmlns="http://www.w3.org/2000/svg" version="1.1" viewBox="0 0 314.6 45.4">
  <!-- Generator: Adobe Illustrator 29.1.0, SVG Export Plug-In . SVG Version: 2.1.0 Build 142)  -->
  <defs>
    <style>
      .st0 {
        fill: #040000;
      }

      .st1 {
        fill: #c11920;
      }
    </style>
  </defs>
  <path class="st1" d="M10.4,19.9h38.2l-2.4,7.4h-27.4l-1.8,5.5h27.4l-2.4,7.4H3.8l6.6-20.3ZM12.2,14.3l2.4-7.4h38.2l-2.4,7.4H12.2Z"/>
  <path class="st0" d="M76.4,27.3h-24.1l2.4-7.4h24.1l-2.4,7.4Z"/>
  <path class="st0" d="M78.5,40.2l10.9-33.3h10.7l-4.2,13h31.5l-2.4,7.4h-31.5l-4.2,12.9h-10.7Z"/>
  <path class="st0" d="M110.3,40.2l10.9-33.3h10.7l-4.2,13-2.4,7.4-4.2,12.9h-10.7Z"/>
  <path class="st0" d="M152.4,15l-18.4,25.3h-10.7l24.6-33.3h14.5l2.9,33.3h-10.7l-2.1-25.3Z"/>
  <path class="st0" d="M211.1,6.9h10.7l-7.3,22.4c-.6,1.8-1.4,3.3-2.6,4.7-1.1,1.4-2.4,2.5-4,3.4-1.5.9-3.2,1.6-5.1,2.1-1.9.5-3.8.7-5.9.7h-14.3c-2,0-3.8-.2-5.4-.7-1.6-.5-2.8-1.2-3.7-2.1-.9-.9-1.5-2.1-1.8-3.4-.2-1.4,0-2.9.5-4.7l7.3-22.4h10.7l-7.1,21.7c-.5,1.4-.4,2.5.3,3.2.6.7,1.8,1.1,3.4,1.1h10.6c1.7,0,3-.4,4.2-1.1,1.1-.7,1.9-1.8,2.4-3.2l7.1-21.7Z"/>
  <path class="st0" d="M228,6.9h38.2l-2.4,7.4h-13.7l-8.4,25.9h-10.7l8.4-25.9h-13.7l2.4-7.4Z"/>
  <path class="st0" d="M262.7,40.2l2.4-7.4h38.2l-2.4,7.4h-38.2ZM266.8,27.3l2.4-7.4h38.2l-2.4,7.4h-38.2ZM271.1,14.3l2.4-7.4h38.2l-2.4,7.4h-38.2Z"/>
</svg>